# File created by Blade
# Date/Time:  Tue Sep 30 19:36:36 2014
#---------------------------------------------------------
:version 1.10
:name HOM
:units
  mass 1.0
  length 1.000000
  angle deg
:documentation
     Acclaim Skeleton File
:root
   axis xyz
   order TX TY TZ RX RY RZ
   position 0.000000 0.000000 0.000000
   orientation 0 0 0
:bonedata
   begin
      id 1
      name Spine_dum
      direction 0.000000 1.000000 0.000000
      length 3.241213
      axis 0.0 0.0 0.0 xyz
   end
   begin
      id 2
      name LeftUpLeg_dum
      direction 1.000000 0.000000 0.000000
      length 3.434019
      axis 0.0 0.0 0.0 xyz
   end
   begin
      id 3
      name RightUpLeg_dum
      direction -1.000000 0.000000 0.000000
      length 3.434019
      axis 0.0 0.0 0.0 xyz
   end
   begin
      id 4
      name Spine
      direction 0.000000 1.000000 0.000000
      length 0.000000
      axis 0.0 0.0 0.0 xyz
      dof rx ry rz
   end
   begin
      id 5
      name Spine_dum1
      direction 0.000000 1.000000 0.000000
      length 18.382958
      axis 0.0 0.0 0.0 xyz
   end
   begin
      id 6
      name Spine_dum2
      direction 0.000000 1.000000 0.000000
      length 12.828261
      axis 0.0 0.0 0.0 xyz
   end
   begin
      id 7
      name Spine_dum3
      direction 0.000000 1.000000 0.000000
      length 12.828261
      axis 0.0 0.0 0.0 xyz
   end
   begin
      id 8
      name Head
      direction 0.000000 1.000000 0.000000
      length 4.527550
      axis 0.0 0.0 0.0 xyz
      dof rx ry rz
   end
   begin
      id 9
      name LeftShoulder
      direction 1.000000 0.000000 0.000000
      length 7.748055
      axis 0.0 0.0 -90.0 xyz
      dof rx ry rz
   end
   begin
      id 10
      name LeftArm
      direction 1.000000 0.000000 0.000000
      length 10.635614
      axis 0.0 0.0 -90.0 xyz
      dof rx ry rz
   end
   begin
      id 11
      name LeftForeArm
      direction 1.000000 0.000000 0.000000
      length 8.346755
      axis 0.0 0.0 -90.0 xyz
      dof ry rz rx
   end
   begin
      id 12
      name LeftHand
      direction 0.000000 0.000000 0.000000
      length 0.000000
      axis 0.0 0.0 -90.0 xyz
      dof rx ry rz
   end
   begin
      id 13
      name LeftHand_dum1
      direction 0.000000 0.000000 0.000000
      length 0.000000
      axis 0.0 0.0 -90.0 xyz
   end
   begin
      id 14
      name LeftHand_dum2
      direction 1.000000 0.000000 0.000000
      length 3.937000
      axis 0.0 0.0 -90.0 xyz
   end
   begin
      id 15
      name LeftHandThumb1
      direction 0.000000 0.000000 1.000000
      length 3.937000
      axis 0.0 0.0 -90.0 xyz
      dof rx rz ry
   end
   begin
      id 16
      name RightShoulder
      direction -1.000000 0.000000 0.000000
      length 7.748055
      axis 0.0 0.0 90.0 xyz
      dof rx ry rz
   end
   begin
      id 17
      name RightArm
      direction -1.000000 0.000000 0.000000
      length 10.635614
      axis 0.0 0.0 90.0 xyz
      dof rx ry rz
   end
   begin
      id 18
      name RightForeArm
      direction -1.000000 0.000000 0.000000
      length 8.346755
      axis 0.0 0.0 90.0 xyz
      dof ry rz rx
   end
   begin
      id 19
      name RightHand
      direction 0.000000 0.000000 0.000000
      length 0.000000
      axis 0.0 0.0 90.0 xyz
      dof rx ry rz
   end
   begin
      id 20
      name RightHand_dum1
      direction 0.000000 0.000000 0.000000
      length 0.000000
      axis 0.0 0.0 90.0 xyz
   end
   begin
      id 21
      name RightHand_dum2
      direction -1.000000 0.000000 0.000000
      length 3.937000
      axis 0.0 0.0 90.0 xyz
   end
   begin
      id 22
      name RightHandThumb1
      direction 0.000000 0.000000 1.000000
      length 3.937000
      axis 0.0 0.0 90.0 xyz
      dof rx rz ry
   end
   begin
      id 23
      name LeftUpLeg
      direction 0.000000 -1.000000 0.000000
      length 15.713025
      axis 0.0 0.0 0.0 xyz
      dof rx ry rz
   end
   begin
      id 24
      name LeftLeg
      direction 0.000000 -1.000000 0.000000
      length 14.435119
      axis 0.0 0.0 0.0 xyz
      dof rx ry rz
   end
   begin
      id 25
      name LeftFoot
      direction 0.000000 -0.258819 0.965926
      length 4.938895
      axis 15.0 0.0 0.0 xyz
      dof rx ry rz
   end
   begin
      id 26
      name LeftToeBase
      direction 0.000000 0.000000 1.000000
      length 2.952750
      axis 0.0 0.0 0.0 xyz
      dof rx ry rz
   end
   begin
      id 27
      name RightUpLeg
      direction 0.000000 -1.000000 0.000000
      length 15.713025
      axis 0.0 0.0 0.0 xyz
      dof rx ry rz
   end
   begin
      id 28
      name RightLeg
      direction 0.000000 -1.000000 0.000000
      length 14.435119
      axis 0.0 0.0 0.0 xyz
      dof rx ry rz
   end
   begin
      id 29
      name RightFoot
      direction 0.000000 -0.258819 0.965926
      length 4.938895
      axis 15.0 0.0 0.0 xyz
      dof rx ry rz
   end
   begin
      id 30
      name RightToeBase
      direction 0.000000 0.000000 1.000000
      length 2.952750
      axis 0.0 0.0 0.0 xyz
      dof rx ry rz
   end
:hierarchy
   begin
      root Spine_dum LeftUpLeg_dum RightUpLeg_dum
      Spine_dum Spine
      LeftUpLeg_dum LeftUpLeg
      RightUpLeg_dum RightUpLeg
      Spine Spine_dum1 Spine_dum2 Spine_dum3
      Spine_dum1 Head
      Spine_dum2 LeftShoulder
      Spine_dum3 RightShoulder
      LeftShoulder LeftArm
      LeftArm LeftForeArm
      LeftForeArm LeftHand
      LeftHand LeftHand_dum1 LeftHand_dum2
      LeftHand_dum1 LeftHandThumb1
      RightShoulder RightArm
      RightArm RightForeArm
      RightForeArm RightHand
      RightHand RightHand_dum1 RightHand_dum2
      RightHand_dum1 RightHandThumb1
      LeftUpLeg LeftLeg
      LeftLeg LeftFoot
      LeftFoot LeftToeBase
      RightUpLeg RightLeg
      RightLeg RightFoot
      RightFoot RightToeBase
   end

# File created by Blade
# Date/Time:  Tue Sep 23 19:22:32 2014
# Frame Rate: 120.000 fps
#------------------------------------------------------
:FULLY-SPECIFIED
:DEGREES
396
root 1.411595 34.429621 -0.921866 129.416493 3.609669 -37.602848
Spine -78.869221 -5.916778 29.697222
Head -23.550893 25.068119 40.416909
LeftShoulder -18.444244 29.478887 41.180500
LeftArm 132.423347 -72.257647 -140.842469
LeftForeArm 5.305108 0.000000 100.554462
LeftHand 38.400155 0.000000 5.284510
LeftHandThumb1 -26.253704 0.000000 33.147579
RightShoulder -36.802695 -37.818290 -6.021304
RightArm 33.202759 61.007283 75.323023
RightForeArm 73.825404 -0.000000 3.732735
RightHand 12.347086 -0.000000 12.618514
RightHandThumb1 -24.326973 -0.000000 -32.862282
LeftUpLeg -131.775297 30.195670 -21.327513
LeftLeg -10.568543 -0.000000 0.000000
LeftFoot 2.478796 -1.638264 -4.034247
LeftToeBase 11.143656 -0.000000 -0.000000
RightUpLeg 7.130759 0.178896 -29.924029
RightLeg 64.295149 -0.000000 -0.000000
RightFoot 40.176554 14.435588 -0.005045
RightToeBase 32.598554 -0.000000 -0.000000
397
root 1.434337 34.429652 -0.919141 129.437445 3.437437 -37.566646
Spine -78.872654 -5.957068 29.672652
Head -23.550247 25.108742 40.393714
LeftShoulder -18.459417 29.477903 41.101509
LeftArm 132.524823 -72.343508 -141.086907
LeftForeArm 5.297022 0.000000 100.698098
LeftHand 38.351803 -0.000000 5.421725
LeftHandThumb1 -26.253704 0.000000 33.147579
RightShoulder -36.812485 -37.807824 -5.968816
RightArm 33.701548 61.532273 76.208688
RightForeArm 73.083706 0.000000 4.495907
RightHand 12.542165 -0.000000 11.880118
RightHandThumb1 -24.326973 -0.000000 -32.862282
LeftUpLeg -131.641216 30.201901 -21.209188
LeftLeg -10.489642 -0.000000 0.000000
LeftFoot 2.401594 -1.528662 -4.043852
LeftToeBase 11.102967 -0.000000 -0.000000
RightUpLeg 7.125470 0.316833 -29.912054
RightLeg 64.350806 -0.000000 -0.000000
RightFoot 40.032653 14.799937 0.064874
RightToeBase 32.654798 -0.000000 -0.000000
398
root 1.457299 34.429116 -0.915833 129.465135 3.260523 -37.528006
Spine -78.887386 -5.999207 29.675951
Head -23.537912 25.211580 40.374413
LeftShoulder -18.500154 29.476626 41.003201
LeftArm 132.745178 -72.389351 -141.451839
LeftForeArm 4.594986 -0.000000 100.806800
LeftHand 38.689698 -0.000000 4.818717
LeftHandThumb1 -26.253704 0.000000 33.147579
RightShoulder -36.779070 -37.781898 -5.957570
RightArm 34.178728 62.065514 77.088400
RightForeArm 72.323687 -0.000000 5.276662
RightHand 12.568478 -0.000000 11.252995
RightHandThumb1 -24.326973 -0.000000 -32.862282
LeftUpLeg -131.512384 30.183610 -21.107315
LeftLeg -10.426549 -0.000000 0.000000
LeftFoot 2.319629 -1.399107 -4.005943
LeftToeBase 11.071946 -0.000000 -0.000000
RightUpLeg 7.121276 0.439466 -29.901846
RightLeg 64.408498 -0.000000 -0.000000
RightFoot 39.845469 15.073422 0.126860
RightToeBase 32.753000 -0.000000 -0.000000
399
root 1.483673 34.425499 -0.910795 129.487923 3.011565 -37.433138
Spine -78.937404 -6.110592 29.660140
Head -23.554651 25.271510 40.324278
LeftShoulder -18.506340 29.410499 40.968772
LeftArm 132.678357 -72.536351 -141.631628
LeftForeArm 4.175284 -0.000000 101.023982
LeftHand 38.746790 -0.000000 4.645317
LeftHandThumb1 -26.253704 0.000000 33.147579
RightShoulder -36.784398 -37.740209 -5.958463
RightArm 34.779349 62.568568 78.074393
RightForeArm 71.639643 0.000000 6.025531
RightHand 12.663165 -0.000000 10.562078
RightHandThumb1 -24.326973 -0.000000 -32.862282
LeftUpLeg -131.345867 30.012334 -21.061147
LeftLeg -10.386996 -0.000000 0.000000
LeftFoot 2.283788 -1.359677 -3.916415
LeftToeBase 11.003956 -0.000000 -0.000000
RightUpLeg 7.171917 0.383886 -29.944248
RightLeg 64.441115 -0.000000 -0.000000
RightFoot 39.818720 15.023642 0.142966
RightToeBase 32.780635 -0.000000 -0.000000
400
root 1.501207 34.430334 -0.904275 129.573449 2.941725 -37.503529
Spine -78.961002 -6.014373 29.665934
Head -23.525327 25.268295 40.326046
LeftShoulder -18.576053 29.517864 40.854524
LeftArm 132.917450 -72.512420 -142.002940
LeftForeArm 4.055645 -0.000000 101.195857
LeftHand 38.752418 -0.000000 4.632436
LeftHandThumb1 -26.253704 0.000000 33.147579
RightShoulder -36.784268 -37.765888 -5.938629
RightArm 35.496473 63.082196 79.208396
RightForeArm 70.932201 0.000000 6.769027
RightHand 12.733314 -0.000000 9.899267
RightHandThumb1 -24.326973 -0.000000 -32.862282
LeftUpLeg -131.387410 30.061285 -21.099249
LeftLeg -10.353037 -0.000000 0.000000
LeftFoot 2.265148 -1.321951 -3.862718
LeftToeBase 10.932082 -0.000000 -0.000000
RightUpLeg 6.977675 0.475852 -29.933523
RightLeg 64.573972 -0.000000 -0.000000
RightFoot 39.780097 14.905239 0.096826
RightToeBase 32.851349 -0.000000 -0.000000
401
root 1.518972 34.431459 -0.895746 129.564901 2.791630 -37.484758
Spine -78.949710 -6.055493 29.651335
Head -23.561469 25.298824 40.299301
LeftShoulder -18.671713 29.549400 40.717549
LeftArm 133.026921 -72.480125 -142.237961
LeftForeArm 3.832413 0.000000 101.378519
LeftHand 38.848722 0.000000 4.502304
LeftHandThumb1 -26.253704 0.000000 33.147579
RightShoulder -36.832475 -37.706036 -5.914897
RightArm 36.338723 63.664402 80.470535
RightForeArm 70.066721 -0.000000 7.575528
RightHand 12.798681 -0.000000 9.181138
RightHandThumb1 -24.326973 -0.000000 -32.862282
LeftUpLeg -131.273495 30.010327 -21.085187
LeftLeg -10.313803 -0.000000 0.000000
LeftFoot 2.193738 -1.350953 -3.897661
LeftToeBase 11.018923 -0.000000 -0.000000
RightUpLeg 6.967643 0.411522 -29.951731
RightLeg 64.621482 -0.000000 -0.000000
RightFoot 39.966382 14.552684 0.053395
RightToeBase 32.844699 -0.000000 -0.000000
402
root 1.539561 34.431226 -0.887710 129.552005 2.602235 -37.464912
Spine -78.938676 -6.112446 29.576514
Head -23.650226 25.304462 40.247772
LeftShoulder -18.732251 29.618983 40.609682
LeftArm 133.248176 -72.407168 -142.655297
LeftForeArm 3.562088 -0.000000 101.591716
LeftHand 38.941504 -0.000000 4.381846
LeftHandThumb1 -26.253704 0.000000 33.147579
RightShoulder -37.001588 -37.762320 -5.750774
RightArm 37.674471 64.322454 82.205076
RightForeArm 68.908430 -0.000000 8.345744
RightHand 12.788753 -0.000000 8.835347
RightHandThumb1 -24.326973 -0.000000 -32.862282
LeftUpLeg -131.113638 29.923914 -21.082983
LeftLeg -10.305538 -0.000000 0.000000
LeftFoot 2.117360 -1.316816 -4.001514
LeftToeBase 11.071894 -0.000000 -0.000000
RightUpLeg 6.990717 0.376582 -30.015117
RightLeg 64.677851 -0.000000 -0.000000
RightFoot 40.092557 14.439437 0.067248
RightToeBase 32.842554 -0.000000 -0.000000
403
root 1.555475 34.433367 -0.880395 129.549909 2.488692 -37.487257
Spine -78.906536 -6.107055 29.522553
Head -23.727992 25.305369 40.220456
LeftShoulder -18.793113 29.717160 40.514980
LeftArm 133.546369 -72.291545 -143.150362
LeftForeArm 3.199367 -0.000000 101.772940
LeftHand 39.046680 -0.000000 4.196011
LeftHandThumb1 -26.253704 0.000000 33.147579
RightShoulder -37.097375 -37.789501 -5.663886
RightArm 38.637372 64.828624 83.599749
RightForeArm 68.090370 -0.000000 9.153598
RightHand 12.822440 -0.000000 8.254478
RightHandThumb1 -24.326973 -0.000000 -32.862282
LeftUpLeg -131.023277 29.936446 -21.077532
LeftLeg -10.281068 -0.000000 0.000000
LeftFoot 2.042978 -1.311701 -4.123811
LeftToeBase 11.146653 -0.000000 -0.000000
RightUpLeg 6.960685 0.441257 -30.034879
RightLeg 64.765907 -0.000000 -0.000000
RightFoot 40.116758 14.485129 0.088173
RightToeBase 32.814396 -0.000000 -0.000000
404
root 1.572691 34.437205 -0.872180 129.594566 2.386022 -37.503758
Spine -78.910217 -6.077337 29.488746
Head -23.819406 25.307884 40.160265
LeftShoulder -18.861959 29.795964 40.411826
LeftArm 133.826858 -72.202845 -143.613956
LeftForeArm 2.824491 -0.000000 101.940335
LeftHand 39.161700 -0.000000 4.066019
LeftHandThumb1 -26.253704 0.000000 33.147579
RightShoulder -37.246368 -37.848776 -5.542545
RightArm 39.619523 65.120277 84.932813
RightForeArm 67.890366 -0.000000 9.966004
RightHand 13.056256 -0.000000 7.258951
RightHandThumb1 -24.326973 -0.000000 -32.862282
LeftUpLeg -130.975765 29.963808 -21.058359
LeftLeg -10.237622 -0.000000 0.000000
LeftFoot 1.929819 -1.322966 -4.281199
LeftToeBase 11.305371 -0.000000 -0.000000
RightUpLeg 6.895997 0.485866 -30.051935
RightLeg 64.845713 -0.000000 -0.000000
RightFoot 40.133642 14.598574 0.125421
RightToeBase 32.824203 -0.000000 -0.000000
405
root 1.584084 34.441372 -0.864183 129.601571 2.337422 -37.534998
Spine -78.880307 -6.042764 29.473083
Head -23.885886 25.345275 40.131986
LeftShoulder -18.930789 29.931398 40.325807
LeftArm 134.172505 -72.043809 -144.154393
LeftForeArm 2.380970 -0.000000 102.107283
LeftHand 39.378930 -0.000000 3.771929
LeftHandThumb1 -26.253704 0.000000 33.147579
RightShoulder -37.336675 -37.927970 -5.434889
RightArm 40.468559 65.457400 86.113811
RightForeArm 67.316166 0.000000 10.618709
RightHand 13.062061 -0.000000 6.739290
RightHandThumb1 -24.326973 -0.000000 -32.862282
LeftUpLeg -130.948948 30.012861 -21.060761
LeftLeg -10.193943 -0.000000 0.000000
LeftFoot 1.841222 -1.422497 -4.396646
LeftToeBase 11.429148 -0.000000 -0.000000
RightUpLeg 6.848627 0.557600 -30.021618
RightLeg 64.916597 -0.000000 -0.000000
RightFoot 40.166349 14.617160 0.114672
RightToeBase 32.749357 -0.000000 -0.000000
406
root 1.595773 34.445372 -0.856339 129.605450 2.285154 -37.556312
Spine -78.855128 -6.018827 29.454918
Head -23.940908 25.380337 40.108256
LeftShoulder -18.997703 30.011313 40.249871
LeftArm 134.409704 -71.916593 -144.568846
LeftForeArm 1.902723 -0.000000 102.270863
LeftHand 39.581149 -0.000000 3.454038
LeftHandThumb1 -26.253704 0.000000 33.147579
RightShoulder -37.288245 -37.859950 -5.538860
RightArm 40.677032 65.737465 86.711518
RightForeArm 66.904487 -0.000000 11.186436
RightHand 13.097219 0.000000 6.282952
RightHandThumb1 -24.326973 -0.000000 -32.862282
LeftUpLeg -130.887116 30.098574 -21.001520
LeftLeg -10.139233 -0.000000 0.000000
LeftFoot 1.741743 -1.449789 -4.565575
LeftToeBase 11.544707 -0.000000 -0.000000
RightUpLeg 6.818142 0.587619 -30.019571
RightLeg 64.977297 -0.000000 -0.000000
RightFoot 40.217013 14.614507 0.125401
RightToeBase 32.787621 -0.000000 -0.000000
